<svg width="26" height="26" viewBox="0 0 26 26" fill="none" xmlns="http://www.w3.org/2000/svg">
<g clip-path="url(#clip0_363_14137)">
<path d="M25.4881 13.0322C25.4881 11.984 25.403 11.219 25.2189 10.4258H13.249V15.157H20.2751C20.1335 16.3328 19.3686 18.1035 17.6687 19.2934L17.6448 19.4518L21.4295 22.3837L21.6917 22.4099C24.0998 20.1858 25.4881 16.9136 25.4881 13.0322Z" fill="#4285F4"/>
<path d="M13.249 25.498C16.6912 25.498 19.581 24.3647 21.6917 22.41L17.6687 19.2935C16.5921 20.0442 15.1472 20.5684 13.249 20.5684C9.87764 20.5684 7.01621 18.3444 5.99619 15.2705L5.84668 15.2832L1.91133 18.3288L1.85986 18.4719C3.95635 22.6365 8.2627 25.498 13.249 25.498Z" fill="#34A853"/>
<path d="M5.99619 15.2703C5.72705 14.4771 5.57129 13.6271 5.57129 12.7488C5.57129 11.8705 5.72705 11.0206 5.98203 10.2273L5.9749 10.0584L1.99023 6.96387L1.85986 7.02588C0.995801 8.7541 0.5 10.6948 0.5 12.7488C0.5 14.8028 0.995801 16.7435 1.85986 18.4717L5.99619 15.2703Z" fill="#FBBC05"/>
<path d="M13.249 4.92959C15.643 4.92959 17.2578 5.96367 18.1786 6.82783L21.7767 3.31475C19.5669 1.26074 16.6912 0 13.249 0C8.26269 0 3.95635 2.86143 1.85986 7.02607L5.98203 10.2275C7.01621 7.15361 9.87764 4.92959 13.249 4.92959Z" fill="#EB4335"/>
</g>
<defs>
<clipPath id="clip0_363_14137">
<rect width="25" height="25.5859" fill="white" transform="translate(0.5)"/>
</clipPath>
</defs>
</svg>