<svg width="20" height="16" viewBox="0 0 20 16" fill="none" xmlns="http://www.w3.org/2000/svg">
<path d="M4.21249 0.290799C4.15761 0.228929 4.09099 0.178569 4.01649 0.142636C3.942 0.106703 3.86111 0.085912 3.77853 0.0814689C3.69594 0.0770259 3.61329 0.0890187 3.53537 0.116752C3.45746 0.144486 3.38582 0.187409 3.32461 0.243033C3.2634 0.298657 3.21384 0.365877 3.17881 0.440795C3.14377 0.515714 3.12395 0.596842 3.1205 0.679476C3.11704 0.762111 3.13003 0.844609 3.15869 0.922189C3.18736 0.999769 3.23114 1.07089 3.28749 1.13142L4.79062 2.78533C1.95312 4.52674 0.732805 7.21111 0.678899 7.33299C0.643362 7.41292 0.625 7.49942 0.625 7.58689C0.625 7.67437 0.643362 7.76087 0.678899 7.8408C0.706243 7.90252 1.36796 9.36971 2.83905 10.8408C4.79921 12.8002 7.27499 13.8361 9.99999 13.8361C11.4005 13.8441 12.7868 13.5557 14.068 12.99L15.7867 14.8814C15.8416 14.9433 15.9082 14.9937 15.9827 15.0296C16.0572 15.0655 16.1381 15.0863 16.2207 15.0908C16.3033 15.0952 16.3859 15.0832 16.4638 15.0555C16.5417 15.0277 16.6134 14.9848 16.6746 14.9292C16.7358 14.8736 16.7854 14.8063 16.8204 14.7314C16.8554 14.6565 16.8753 14.5754 16.8787 14.4927C16.8822 14.4101 16.8692 14.3276 16.8405 14.25C16.8118 14.1725 16.7681 14.1013 16.7117 14.0408L4.21249 0.290799ZM7.91015 6.2158L11.1656 9.79783C10.6754 10.0557 10.1134 10.1435 9.56783 10.0474C9.02229 9.95127 8.52413 9.67668 8.15157 9.26674C7.77901 8.85681 7.55314 8.33474 7.50945 7.78253C7.46575 7.23032 7.6067 6.67923 7.91015 6.2158ZM9.99999 12.5861C7.5953 12.5861 5.49452 11.7119 3.75546 9.98846C3.04164 9.27907 2.43454 8.46985 1.95312 7.58611C2.31952 6.89939 3.48905 4.97752 5.65234 3.7283L7.05859 5.27127C6.51416 5.96854 6.23377 6.83583 6.26697 7.71984C6.30017 8.60385 6.64483 9.44767 7.24002 10.1021C7.83521 10.7566 8.64261 11.1796 9.51952 11.2963C10.3964 11.413 11.2864 11.216 12.032 10.74L13.1828 12.0056C12.1672 12.3953 11.0878 12.5922 9.99999 12.5861ZM10.4687 5.13064C10.3059 5.09956 10.162 5.00506 10.0689 4.86792C9.97568 4.73079 9.94079 4.56225 9.97187 4.39939C10.0029 4.23653 10.0975 4.09269 10.2346 3.99951C10.3717 3.90633 10.5403 3.87144 10.7031 3.90252C11.4997 4.05695 12.225 4.46474 12.7708 5.06509C13.3167 5.66543 13.6539 6.42614 13.732 7.23377C13.7475 7.3988 13.6967 7.56321 13.5909 7.69082C13.4851 7.81843 13.333 7.8988 13.168 7.91424C13.1484 7.91538 13.1289 7.91538 13.1094 7.91424C12.9532 7.91491 12.8024 7.85705 12.6867 7.75207C12.571 7.64709 12.4988 7.50259 12.4844 7.34705C12.4318 6.80986 12.2072 6.30399 11.844 5.90466C11.4809 5.50533 10.9985 5.23387 10.4687 5.13064ZM19.3187 7.8408C19.2859 7.91424 18.4945 9.66658 16.7125 11.2627C16.6516 11.3189 16.5801 11.3625 16.5022 11.3909C16.4243 11.4193 16.3415 11.4319 16.2587 11.428C16.1759 11.4241 16.0947 11.4037 16.0198 11.3681C15.9449 11.3325 15.8779 11.2823 15.8226 11.2205C15.7673 11.1587 15.7249 11.0866 15.6977 11.0082C15.6706 10.9299 15.6593 10.8469 15.6645 10.7642C15.6698 10.6814 15.6914 10.6006 15.7282 10.5263C15.765 10.452 15.8162 10.3857 15.8789 10.3314C16.7532 9.54597 17.4876 8.61765 18.0508 7.58611C17.5683 6.70156 16.9599 5.8918 16.2445 5.18221C14.5055 3.46033 12.4047 2.58611 9.99999 2.58611C9.49332 2.58549 8.98745 2.62652 8.48749 2.70877C8.40619 2.72315 8.32284 2.72127 8.24227 2.70326C8.1617 2.68524 8.08549 2.65144 8.01805 2.6038C7.95062 2.55617 7.89329 2.49564 7.84938 2.42572C7.80547 2.35581 7.77584 2.27788 7.76222 2.19645C7.7486 2.11502 7.75124 2.03169 7.77 1.95129C7.78877 1.87088 7.82327 1.79499 7.87153 1.728C7.91979 1.66101 7.98085 1.60425 8.05117 1.56098C8.12149 1.51772 8.19969 1.48882 8.28124 1.47596C8.84934 1.38215 9.4242 1.33538 9.99999 1.33611C12.725 1.33611 15.2008 2.37205 17.1609 4.33221C18.632 5.8033 19.2937 7.27127 19.3211 7.33299C19.3566 7.41292 19.375 7.49942 19.375 7.58689C19.375 7.67437 19.3566 7.76087 19.3211 7.8408H19.3187Z" fill="#3D445C"/>
</svg>
